<?xml version="1.0" encoding="UTF-8" standalone="no"?>
<svg
   viewBox="0 0 576 512"
   version="1.1"
   id="svg4"
   sodipodi:docname="icon-light.svg"
   xml:space="preserve"
   inkscape:version="1.2.1 (9c6d41e410, 2022-07-14)"
   xmlns:inkscape="http://www.inkscape.org/namespaces/inkscape"
   xmlns:sodipodi="http://sodipodi.sourceforge.net/DTD/sodipodi-0.dtd"
   xmlns="http://www.w3.org/2000/svg"
   xmlns:svg="http://www.w3.org/2000/svg"><defs
     id="defs8" /><sodipodi:namedview
     id="namedview6"
     pagecolor="#505050"
     bordercolor="#eeeeee"
     borderopacity="1"
     inkscape:showpageshadow="0"
     inkscape:pageopacity="0"
     inkscape:pagecheckerboard="0"
     inkscape:deskcolor="#505050"
     showgrid="false"
     inkscape:zoom="1.2457233"
     inkscape:cx="142.4875"
     inkscape:cy="230.38825"
     inkscape:window-width="1499"
     inkscape:window-height="1111"
     inkscape:window-x="26"
     inkscape:window-y="23"
     inkscape:window-maximized="0"
     inkscape:current-layer="svg4" /><!--! Font Awesome Pro 6.1.2 by @fontawesome - https://fontawesome.com License - https://fontawesome.com/license (Commercial License) Copyright 2022 Fonticons, Inc. --><path
     d="m 544,416 c 17.7,0 32,14.3 32,32 0,17.7 -14.3,32 -32,32 H 224 C 100.3,480 0,379.7 0,256 0,132.3 100.3,32 224,32 c 123.7,0 224,100.3 224,224 0,62.7 -25.7,119.3 -67.2,160 z M 224,352 c 53,0 96,-43 96,-96 0,-53.9 -43,-96 -96,-96 -53.9,0 -96,42.1 -96,96 0,53 42.1,96 96,96 z"
     id="path2"
     sodipodi:nodetypes="ssssssscssssss" /><path
     id="path2-3"
     d="m 224,192 c -6.89939,0 -13.53159,1.12658 -19.76172,3.1543 l 11.38477,11.38476 c 10.84618,-3.66348 21.11619,6.72176 17.39257,17.50782 l 19.9043,19.90429 c 13.72007,-4.72967 24.52188,12.4256 14.2168,22.72266 -10.61771,10.61772 -28.14097,-1.15054 -22.44531,-14.9668 L 226.11328,233.1543 v 48.83984 c 10.14074,5.02629 8.92148,16.77415 3.63867,22.04492 a 13.764166,13.764166 0 0 1 -19.45898,0 c -7.0424,-7.05442 -4.43849,-18.80382 4.50781,-22.44726 v -49.30078 c -8.33705,-3.41098 -9.85959,-12.32142 -7.4707,-18.03711 L 193.08594,199.99414 C 173.37763,210.91275 160,231.91006 160,256 c 0,35.29996 28.70004,64 64,64 17.07757,0 32.57279,-6.7575 44.05859,-17.68945 l 2.25196,-2.25196 C 281.2425,288.57279 288,273.07757 288,256 c 0,-15.35368 -5.43803,-29.45221 -14.47852,-40.49023 L 264.5,206.48633 C 253.46053,197.44106 239.3582,192 224,192 Z" /></svg>
