<?xml version="1.0" encoding="UTF-8" standalone="no"?>
<svg
   viewBox="0 0 1880 448"
   version="1.1"
   id="svg4"
   sodipodi:docname="logo-readme.svg"
   xml:space="preserve"
   inkscape:version="1.2.1 (9c6d41e410, 2022-07-14)"
   width="1880"
   height="448"
   inkscape:export-filename="logo-readme.png"
   inkscape:export-xdpi="96"
   inkscape:export-ydpi="96"
   xmlns:inkscape="http://www.inkscape.org/namespaces/inkscape"
   xmlns:sodipodi="http://sodipodi.sourceforge.net/DTD/sodipodi-0.dtd"
   xmlns="http://www.w3.org/2000/svg"
   xmlns:svg="http://www.w3.org/2000/svg"><defs
     id="defs8"><rect
       x="586.31226"
       y="32"
       width="1641.6041"
       height="448"
       id="rect1143" /></defs><sodipodi:namedview
     id="namedview6"
     pagecolor="#ffffff"
     bordercolor="#eeeeee"
     borderopacity="1"
     inkscape:showpageshadow="0"
     inkscape:pageopacity="1"
     inkscape:pagecheckerboard="0"
     inkscape:deskcolor="#505050"
     showgrid="false"
     inkscape:zoom="0.44042968"
     inkscape:cx="716.34591"
     inkscape:cy="43.13969"
     inkscape:window-width="2560"
     inkscape:window-height="1371"
     inkscape:window-x="0"
     inkscape:window-y="0"
     inkscape:window-maximized="1"
     inkscape:current-layer="g9093" /><!--! Font Awesome Pro 6.1.2 by @fontawesome - https://fontawesome.com License - https://fontawesome.com/license (Commercial License) Copyright 2022 Fonticons, Inc. --><g
     id="g9093"
     transform="translate(-60.390245)"><g
       id="g9074"
       transform="matrix(0.71497561,0,0,0.71497561,172.44519,63.845464)"><path
         d="m 544,384 c 17.7,0 32,14.3 32,32 0,17.7 -14.3,32 -32,32 H 224 C 100.3,448 0,347.7 0,224 0,100.3 100.3,0 224,0 c 123.7,0 224,100.3 224,224 0,62.7 -25.7,119.3 -67.2,160 z M 224,320 c 53,0 96,-43 96,-96 0,-53.9 -43,-96 -96,-96 -53.9,0 -96,42.1 -96,96 0,53 42.1,96 96,96 z"
         id="path2"
         sodipodi:nodetypes="ssssssscssssss" /><path
         id="path2-3"
         d="m 224,160 c -6.89939,0 -13.53159,1.12658 -19.76172,3.1543 l 11.38477,11.38476 c 10.84618,-3.66348 21.11619,6.72176 17.39257,17.50782 l 19.9043,19.90429 c 13.72007,-4.72967 24.52188,12.4256 14.2168,22.72266 -10.61771,10.61772 -28.14097,-1.15054 -22.44531,-14.9668 L 226.11328,201.1543 v 48.83984 c 10.14074,5.02629 8.92148,16.77415 3.63867,22.04492 a 13.764166,13.764166 0 0 1 -19.45898,0 c -7.0424,-7.05442 -4.43849,-18.80382 4.50781,-22.44726 v -49.30078 c -8.33705,-3.41098 -9.85959,-12.32142 -7.4707,-18.03711 L 193.08594,167.99414 C 173.37763,178.91275 160,199.91006 160,224 c 0,35.29996 28.70004,64 64,64 17.07757,0 32.57279,-6.7575 44.05859,-17.68945 l 2.25196,-2.25196 C 281.2425,256.57279 288,241.07757 288,224 c 0,-15.35368 -5.43803,-29.45221 -14.47852,-40.49023 L 264.5,174.48633 C 253.46053,165.44106 239.3582,160 224,160 Z" /></g><text
       xml:space="preserve"
       id="text1141"
       style="letter-spacing:0.295814px;white-space:pre;shape-inside:url(#rect1143);display:inline;fill:#000000;stroke:#000000;stroke-opacity:1"
       transform="matrix(20.283025,0,0,20.283025,-11271.877,-554.91965)"><tspan
         x="586.3125"
         y="42.617188"
         id="tspan368"><tspan
           style="font-weight:100;font-family:Overpass;-inkscape-font-specification:'Overpass Thin'"
           id="tspan366">Octarchive</tspan></tspan></text></g></svg>
